<svg version="1.1" id="Layer_1"
    xmlns="http://www.w3.org/2000/svg" 
    xmlns:xlink="http://www.w3.org/1999/xlink"
    x="0px" y="0px"
    viewBox="0 0 128 128">
  <defs>
    <linearGradient id="gold" x1="0" x2="0" y1="0" y2="1">
        <stop stop-color="#fff8c6" offset="0"/>
        <stop stop-color="#ffd700" offset="0.25"/>
        <stop stop-color="#ffc300" offset="0.5"/>
        <stop stop-color="#ffdb58" offset="0.75"/>
        <stop stop-color="#fff8c6" offset="1"/>
    </linearGradient>
  </defs>

  <style type="text/css">
    .gold {
      fill: url(#gold);
      stroke: #a67c00
    }
  </style>

<path class="gold"
d="m61.63 112.01-57.92-66.26h38.01l19.91 66.26zm2.11-95.92-15.29 25.13h31.71l-16.42-25.13zm21 24.96-17.01-25.07h31.45l-14.44 25.07zm-40.53.24 14.9-25.31h-31.94l17.04 25.31zm60.06-22.33-15.04 22.26h36.21l-21.17-22.26zm-79.45 0 15.81 22.26h-38.07l22.26-22.26zm22.47 26.59h33.63l-16.32 65.47-17.31-65.47zm20.18 66.47 57.23-66.27h-38.01l-19.22 66.27z"/>
</svg>
